<?xml version="1.0" encoding="UTF-8"?>
<svg width="640" height="480" xmlns="http://www.w3.org/2000/svg" xmlns:svg="http://www.w3.org/2000/svg">
 <title>Geass_kr</title>
 <g>
  <title>Layer 1</title>
  <path id="svg_1" d="m317.24789,359.47034c0,0 -35.40924,-13.86435 -46.40954,-28.32886s5.57608,-65.54263 6.63196,-82.56737c1.0559,-17.02481 -187.73929,-76.54295 -266.39038,-180.20327c36.16143,103.6639 206.57217,209.43244 210.9405,219.37687s-11.60063,56.05017 -7.83266,70.51477s103.06012,87.39499 103.06012,87.39142c0,0 99.29209,-72.92676 103.06003,-87.39142s-12.20083,-60.5704 -7.83252,-70.51477s174.77906,-115.71655 210.94049,-219.38052c-78.65118,103.66397 -267.44629,163.17843 -266.39041,180.20334s17.63236,68.10632 6.63199,82.57095s-46.40958,28.32886 -46.40958,28.32886z" fill="#ba0000"/>
 </g>
</svg>